<?xml version="1.0" standalone="no"?>
<!DOCTYPE svg PUBLIC "-//W3C//DTD SVG 20010904//EN"
 "http://www.w3.org/TR/2001/REC-SVG-20010904/DTD/svg10.dtd">
<svg version="1.0" xmlns="http://www.w3.org/2000/svg"
 width="539.000000pt" height="539.000000pt" viewBox="0 0 539.000000 539.000000"
 preserveAspectRatio="xMidYMid meet">
<metadata>
Created by potrace 1.14, written by Peter Selinger 2001-2017
</metadata>
<g transform="translate(0.000000,539.000000) scale(0.100000,-0.100000)"
fill="#000000" stroke="none">
<path d="M1881 5198 c0 -10 -6 -18 -12 -18 -5 0 -7 5 -4 10 3 6 1 10 -5 10
-16 0 -72 -41 -66 -48 3 -3 15 3 26 13 23 21 21 25 22 -80 l1 -50 23 75 c13
41 22 82 20 90 -3 11 -4 10 -5 -2z"/>
<path d="M5010 5085 c0 -39 78 -248 133 -355 60 -118 192 -345 227 -390 l20
-25 0 137 0 136 -32 35 c-18 19 -44 49 -58 67 -14 18 -32 40 -41 49 -8 9 -26
34 -39 56 -13 22 -27 42 -31 45 -4 3 -46 63 -93 134 -47 70 -86 120 -86 111z"/>
<path d="M1466 4901 c-21 -23 -116 -69 -158 -78 l-29 -6 37 -22 36 -22 24 24
c13 12 32 23 43 23 23 0 71 54 71 81 0 24 -3 24 -24 0z"/>
<path d="M23 4893 c-22 -4 -23 -9 -23 -99 0 -92 1 -94 20 -82 11 7 20 18 20
24 0 7 7 15 16 18 21 8 11 52 -18 83 -17 18 -19 25 -9 37 7 8 19 12 26 10 8
-3 22 -1 32 5 15 9 14 10 -12 9 -16 0 -40 -3 -52 -5z"/>
<path d="M370 4830 c-46 -21 -106 -42 -132 -45 -55 -8 -55 -25 1 -25 20 0 46
-6 57 -14 18 -14 18 -16 1 -48 -27 -51 -106 -77 -230 -78 -60 0 -68 -2 -65
-17 4 -21 53 -32 148 -32 68 -1 106 14 160 64 14 13 34 25 45 27 12 2 25 18
35 44 8 22 28 61 43 87 46 75 35 81 -63 37z"/>
<path d="M1421 4788 c-41 -29 -43 -32 -26 -45 26 -18 38 -16 55 10 18 26 31
67 22 67 -4 -1 -27 -15 -51 -32z"/>
<path d="M1535 4710 c-4 -17 -5 -34 -2 -36 3 -3 8 9 12 26 4 17 5 34 2 36 -3
3 -8 -9 -12 -26z"/>
<path d="M1239 4693 c18 -24 35 -43 38 -43 7 0 -34 55 -54 71 -10 8 -3 -5 16
-28z"/>
<path d="M1493 4617 c-1 -30 -1 -31 8 -8 5 14 6 28 2 32 -4 4 -9 -6 -10 -24z"/>
<path d="M1890 4616 c0 -3 9 -10 20 -16 11 -6 20 -8 20 -6 0 3 -9 10 -20 16
-11 6 -20 8 -20 6z"/>
<path d="M1744 4602 c-15 -10 -34 -47 -34 -67 0 -9 13 -29 29 -44 40 -38 27
-60 -19 -32 -30 18 -36 18 -61 5 -41 -21 -46 -18 -65 31 -9 25 -21 48 -26 52
-6 3 -6 -2 0 -13 5 -11 12 -37 16 -59 12 -73 30 -125 44 -125 7 0 22 4 32 10
10 5 40 12 66 15 39 5 45 4 36 -8 -6 -7 13 -2 43 12 30 14 50 28 44 32 -6 3
-2 9 10 12 12 3 21 1 21 -4 0 -5 4 -9 10 -9 5 0 7 7 4 15 -5 11 1 15 22 15 23
0 26 -2 14 -11 -13 -9 -13 -10 2 -6 28 9 78 -15 78 -38 0 -15 2 -17 9 -6 7 11
16 7 42 -20 30 -31 32 -31 25 -9 -4 14 -13 58 -20 99 -13 71 -32 103 -48 78
-6 -9 -8 -8 -8 3 -1 12 -3 12 -14 -3 -13 -16 -14 -16 -20 -1 -9 23 -19 10 -11
-15 3 -11 12 -18 19 -15 8 3 13 -8 14 -36 3 -43 -4 -45 -57 -11 -13 8 -52 16
-93 17 -49 2 -76 8 -89 20 -22 20 -25 67 -5 83 20 17 66 3 66 -19 0 -26 19
-35 27 -14 4 12 -4 26 -25 46 -32 28 -57 34 -78 20z"/>
<path d="M1798 4513 c7 -3 16 -2 19 1 4 3 -2 6 -13 5 -11 0 -14 -3 -6 -6z"/>
<path d="M223 4491 c-6 -10 -32 -29 -57 -41 -25 -12 -44 -26 -40 -31 3 -5 -2
-10 -10 -10 -9 -1 -19 -2 -23 -3 -5 -1 -27 -6 -50 -10 -42 -8 -43 -9 -43 -47
0 -38 1 -39 28 -32 49 12 107 42 131 67 13 13 29 22 37 19 18 -7 64 5 64 16 0
5 -11 12 -25 15 -14 4 -25 11 -25 17 0 6 7 8 16 5 24 -9 264 -46 294 -45 8 0
-36 14 -99 30 -62 16 -129 38 -148 49 -41 24 -36 24 -50 1z"/>
<path d="M1260 4506 c0 -2 8 -10 18 -17 15 -13 16 -12 3 4 -13 16 -21 21 -21
13z"/>
<path d="M1067 4446 c3 -14 -5 -34 -22 -54 l-26 -31 31 -16 c40 -21 53 -16 81
34 17 31 29 41 53 44 23 3 20 4 -14 5 -25 1 -59 11 -76 21 l-31 19 4 -22z"/>
<path d="M1358 4453 c-25 -6 -23 -15 10 -45 18 -17 43 -27 77 -31 28 -4 67
-10 89 -13 l38 -7 -16 26 c-20 30 -81 61 -102 53 -9 -3 -22 1 -30 9 -15 15
-33 17 -66 8z"/>
<path d="M3770 4450 c0 -5 5 -10 10 -10 6 0 10 5 10 10 0 6 -4 10 -10 10 -5 0
-10 -4 -10 -10z"/>
<path d="M1217 4393 c-4 -21 -7 -53 -7 -70 0 -30 3 -33 29 -33 32 0 60 24 40
35 -8 6 -8 10 2 16 11 6 11 11 2 20 -16 16 -5 39 17 39 26 0 33 -16 19 -42
l-11 -23 23 23 23 22 -21 21 c-13 14 -38 24 -66 26 l-44 5 -6 -39z"/>
<path d="M1585 4310 c-16 -7 -17 -9 -3 -9 9 -1 20 4 23 9 7 11 7 11 -20 0z"/>
<path d="M3570 4316 c0 -2 7 -7 16 -10 8 -3 12 -2 9 4 -6 10 -25 14 -25 6z"/>
<path d="M3900 4316 c0 -6 88 -140 112 -171 13 -16 22 -33 20 -38 -1 -5 3 -7
10 -4 7 2 36 -9 65 -25 55 -31 100 -40 121 -25 6 5 12 7 12 4 0 -9 75 15 82
27 5 8 8 7 8 -3 0 -11 3 -11 15 -1 11 9 15 9 15 1 0 -7 5 -9 11 -5 6 3 16 0
21 -7 6 -10 7 -6 3 11 -6 20 -5 23 6 13 19 -19 32 -16 25 5 -6 16 -5 16 8 0
16 -22 26 -23 26 -3 0 13 4 14 22 4 18 -10 20 -9 15 4 -4 11 -2 14 7 11 8 -3
17 0 21 6 6 9 10 9 16 -1 7 -11 9 -11 9 1 0 9 -6 22 -12 28 -18 18 6 32 56 32
39 0 39 0 21 20 -10 11 -23 19 -28 17 -6 -2 -22 7 -35 20 -14 13 -36 26 -49
29 -13 4 -23 10 -23 14 0 4 -7 10 -14 13 -11 4 -13 1 -9 -11 6 -15 4 -15 -10
-4 -25 21 -74 26 -80 8 -4 -9 -14 -12 -27 -9 -16 4 -19 2 -14 -13 3 -11 2 -15
-3 -9 -4 6 -35 10 -68 10 -63 0 -128 9 -157 20 -11 4 -18 3 -18 -4 0 -20 -51
-13 -57 8 -3 11 -17 21 -35 25 -33 7 -88 8 -88 2z"/>
<path d="M4040 4300 c20 -13 33 -13 25 0 -3 6 -14 10 -23 10 -15 0 -15 -2 -2
-10z"/>
<path d="M1470 4290 c-8 -5 -10 -10 -5 -10 6 0 17 5 25 10 8 5 11 10 5 10 -5
0 -17 -5 -25 -10z"/>
<path d="M1510 4284 l-25 -15 25 7 c14 3 29 10 35 15 15 14 -7 10 -35 -7z"/>
<path d="M889 4243 c25 -37 27 -53 6 -53 -8 0 -15 -3 -15 -7 0 -7 56 -9 83 -4
16 3 -14 41 -33 41 -11 0 -18 6 -16 13 1 6 1 9 -1 4 -3 -4 -14 3 -25 15 -18
21 -18 21 1 -9z"/>
<path d="M95 4251 c-3 -6 -26 -11 -51 -11 -37 0 -44 -3 -44 -20 0 -11 5 -20
10 -20 6 0 10 5 10 10 0 12 57 13 64 1 3 -4 25 -11 48 -15 24 -4 58 -9 76 -12
18 -4 32 -2 32 4 0 11 -68 45 -90 45 -8 0 -22 6 -32 14 -11 10 -18 11 -23 4z"/>
<path d="M1330 4230 c-8 -5 -12 -12 -9 -15 4 -3 12 1 19 10 14 17 11 19 -10 5z"/>
<path d="M1298 4214 c-7 -13 12 -94 22 -94 5 0 6 17 3 38 -7 43 -18 69 -25 56z"/>
<path d="M988 4183 c24 -36 39 -77 47 -130 5 -32 11 -43 24 -43 9 0 27 -9 40
-21 l22 -21 18 21 c10 12 30 21 45 21 15 0 37 5 48 11 17 9 18 13 7 20 -8 5
-24 9 -36 9 -12 0 -37 13 -55 28 -42 36 -91 67 -100 64 -4 -1 -20 14 -35 33
-33 41 -53 47 -25 8z"/>
<path d="M920 4135 c0 -29 25 -25 33 6 4 14 0 19 -14 19 -14 0 -19 -7 -19 -25z"/>
<path d="M870 4125 c0 -14 4 -25 10 -25 5 0 7 -8 3 -17 -5 -14 -3 -15 7 -6 8
7 10 22 5 42 -8 37 -25 41 -25 6z"/>
<path d="M1217 4100 c18 -32 22 -34 47 -24 28 11 19 41 -15 48 -49 10 -51 8
-32 -24z"/>
<path d="M771 3954 c-7 -41 -10 -78 -7 -81 3 -4 6 1 6 10 0 10 4 17 9 17 10 0
24 37 23 65 0 11 4 23 9 26 5 3 1 13 -9 23 -19 16 -20 14 -31 -60z"/>
<path d="M4080 4008 c0 -4 5 -19 12 -35 6 -15 10 -32 9 -37 -1 -5 2 -12 6 -15
4 -3 13 -15 20 -26 6 -11 16 -19 22 -17 6 1 11 -9 11 -22 0 -13 6 -29 14 -35
8 -7 18 -26 21 -42 4 -16 11 -29 16 -29 5 0 9 -5 9 -11 0 -6 9 -23 20 -39 11
-15 17 -30 13 -33 -3 -4 2 -9 11 -13 9 -3 14 -9 11 -14 -2 -4 9 -22 25 -40 17
-19 30 -37 30 -40 0 -4 11 -12 25 -18 20 -9 25 -9 25 1 0 20 -123 228 -154
262 -15 17 -55 70 -87 120 -32 49 -59 87 -59 83z"/>
<path d="M1211 3954 c-17 -37 -8 -39 13 -4 9 17 13 30 8 30 -5 0 -14 -12 -21
-26z"/>
<path d="M883 3917 c-25 -9 -46 -33 -88 -101 -31 -49 -54 -90 -52 -93 3 -2 19
8 36 23 17 14 68 45 113 68 44 22 97 50 117 60 20 11 51 22 70 25 19 4 36 12
39 19 5 16 -190 15 -235 -1z"/>
<path d="M4630 3906 c0 -15 -5 -17 -32 -12 -18 3 -45 8 -60 10 l-27 5 32 -31
c18 -17 25 -29 16 -25 -9 3 -21 1 -27 -5 -8 -8 -18 -6 -36 6 -25 16 -26 16
-26 -4 0 -13 -7 -20 -20 -20 -11 0 -20 -5 -20 -12 0 -6 -10 0 -21 13 -21 23
-21 23 -15 2 6 -18 4 -21 -15 -16 -17 5 -20 3 -14 -8 5 -8 35 -55 66 -106 31
-50 75 -131 97 -180 59 -132 141 -206 195 -178 32 16 176 68 248 90 31 9 67
27 80 41 12 13 28 24 35 24 6 0 17 7 24 15 7 8 16 12 21 10 4 -3 23 2 41 12
23 12 33 24 31 38 -2 11 0 14 3 8 3 -7 10 -13 15 -13 15 0 10 36 -6 50 -12 10
-15 9 -16 -6 0 -18 -1 -18 -8 1 -5 11 -7 23 -4 28 2 4 1 12 -3 18 -4 8 -9 7
-16 -2 -5 -9 -6 -4 -2 14 4 16 2 27 -4 27 -8 0 -8 9 -1 30 6 17 15 30 20 30
17 0 9 20 -23 52 -44 45 -76 60 -111 52 -22 -5 -28 -3 -22 6 6 9 4 11 -4 6 -7
-5 -10 -10 -7 -13 2 -2 -2 -12 -10 -21 -8 -9 -27 -32 -43 -50 l-28 -34 -22 35
c-11 19 -21 38 -21 42 0 9 -52 55 -62 55 -3 0 -9 -6 -11 -12 -3 -8 -6 -5 -6 5
-1 10 -5 15 -11 12 -5 -3 -10 1 -10 9 0 9 -4 16 -10 16 -5 0 -10 -8 -10 -17 0
-15 -2 -16 -10 -3 -8 13 -11 12 -24 -5 -9 -12 -15 -15 -16 -7 0 7 -4 11 -9 8
-5 -4 -12 0 -14 6 -3 8 -6 6 -6 -4 -1 -20 -29 -14 -48 11 -11 14 -12 14 -13
-3z m-65 -84 c-3 -3 -11 0 -18 7 -9 10 -8 11 6 5 10 -3 15 -9 12 -12z m568
-127 c5 -11 6 -17 2 -13 -4 4 -13 1 -19 -7 -10 -13 -13 -13 -23 4 -9 15 -8 23
5 39 11 14 18 17 21 9 2 -7 8 -21 14 -32z m17 31 c0 -3 -4 -8 -10 -11 -5 -3
-10 -1 -10 4 0 6 5 11 10 11 6 0 10 -2 10 -4z m-365 -56 c20 0 27 -30 9 -47
-8 -8 -16 -14 -17 -12 -1 2 -11 19 -21 38 -17 31 -18 34 -2 28 10 -4 24 -7 31
-7z"/>
<path d="M1075 3850 c-19 -8 -19 -9 2 -9 12 -1 25 4 28 9 7 12 -2 12 -30 0z"/>
<path d="M1696 3769 c-136 -146 -225 -314 -255 -481 -6 -29 -22 -87 -36 -128
-14 -41 -28 -95 -31 -120 l-6 -45 21 33 c12 18 21 41 21 50 0 24 53 170 92
252 16 35 38 85 48 110 34 85 102 215 137 263 19 26 32 47 29 47 -4 0 7 14 24
31 16 18 30 36 30 40 0 20 -21 5 -74 -52z"/>
<path d="M901 3799 c-41 -22 -60 -39 -43 -39 7 0 12 4 12 10 0 5 6 7 13 5 6
-3 26 6 42 20 35 28 25 30 -24 4z"/>
<path d="M960 3810 c0 -5 7 -7 15 -4 8 4 15 8 15 10 0 2 -7 4 -15 4 -8 0 -15
-4 -15 -10z"/>
<path d="M812 3745 c-7 -8 -9 -15 -4 -15 5 0 15 7 22 15 16 19 -1 19 -18 0z"/>
<path d="M3720 3685 c6 -16 15 -34 19 -40 11 -13 67 -180 76 -222 4 -18 11
-35 16 -38 5 -3 27 -37 50 -75 23 -39 45 -67 50 -64 12 7 11 47 -1 93 -5 20
-12 48 -15 63 -3 15 -11 33 -19 41 -8 8 -29 45 -47 83 -36 76 -36 76 -97 142
-39 42 -42 44 -32 17z"/>
<path d="M5240 3590 c0 -5 5 -10 11 -10 5 0 7 5 4 10 -3 6 -8 10 -11 10 -2 0
-4 -4 -4 -10z"/>
<path d="M0 3531 c0 -12 9 -21 25 -25 14 -4 25 -11 25 -16 0 -6 5 -10 10 -10
6 0 29 -16 50 -36 55 -51 78 -66 90 -59 6 3 10 3 10 -2 0 -4 14 -8 30 -9 l30
-1 -32 31 c-33 31 -128 96 -142 96 -3 0 -24 11 -46 25 -47 30 -50 30 -50 6z"/>
<path d="M3180 3534 c0 -6 7 -19 16 -30 14 -18 14 -18 3 6 -14 31 -19 36 -19
24z"/>
<path d="M4331 3491 c29 -52 36 -58 79 -66 l34 -6 -22 24 c-13 13 -44 39 -69
57 l-46 34 24 -43z"/>
<path d="M3210 3478 c0 -9 41 -78 46 -78 2 0 4 6 4 13 -1 12 -50 77 -50 65z"/>
<path d="M337 3327 c-9 -25 28 -80 75 -111 28 -18 25 -19 113 23 5 2 -3 -7
-18 -20 -20 -17 -26 -29 -22 -42 10 -24 14 -22 68 27 67 63 62 79 -26 90 -32
3 -75 14 -95 22 -49 22 -89 26 -95 11z"/>
<path d="M5360 3190 c0 -12 -8 -21 -22 -24 -84 -17 -80 -15 -61 -34 28 -28 91
-72 102 -72 7 0 11 29 11 75 0 60 -3 75 -15 75 -8 0 -15 -9 -15 -20z"/>
<path d="M4960 3133 c0 -9 25 -34 78 -77 40 -34 23 -10 -28 38 -27 26 -50 43
-50 39z"/>
<path d="M2353 3118 c-13 -6 -23 -15 -23 -20 0 -5 11 -1 25 8 37 24 35 30 -2
12z"/>
<path d="M410 3101 c-27 -15 -86 -31 -114 -31 -14 0 -29 -7 -32 -15 -4 -8 -11
-15 -17 -15 -7 0 -7 4 1 12 18 18 14 30 -7 23 -17 -5 -154 8 -213 21 l-28 6 0
-386 c0 -212 3 -386 8 -385 4 0 50 22 102 48 102 51 120 71 120 133 0 20 6 61
14 90 16 61 101 304 116 330 14 24 13 41 -2 32 -6 -4 1 9 16 29 17 22 25 41
20 49 -4 7 -4 10 1 6 9 -8 55 36 55 53 0 11 -19 11 -40 0z m-195 -91 c-10 -11
-15 -23 -11 -27 3 -4 13 3 22 15 20 29 38 29 23 0 -7 -13 -15 -25 -18 -28 -12
-10 -41 -81 -41 -100 0 -10 -4 -21 -9 -24 -11 -7 -23 -86 -23 -149 0 -49 22
-100 49 -117 15 -9 14 -10 -7 -4 -22 6 -23 5 -11 -10 7 -9 10 -16 5 -16 -15 1
-39 23 -60 55 -26 40 -26 205 0 285 18 54 73 139 90 140 5 0 1 -9 -9 -20z"/>
<path d="M177 2958 c-8 -12 -18 -34 -21 -48 l-6 -25 13 26 c6 14 18 34 26 43
8 9 11 19 8 22 -3 3 -12 -5 -20 -18z"/>
<path d="M4890 3096 c0 -2 8 -10 18 -17 15 -13 16 -12 3 4 -13 16 -21 21 -21
13z"/>
<path d="M4930 2993 c30 -59 110 -148 110 -122 0 8 -13 40 -29 72 -28 58 -30
72 -5 40 11 -15 13 -15 9 -2 -8 21 -53 54 -87 63 l-28 6 30 -57z"/>
<path d="M5080 3001 c0 -5 5 -13 10 -16 6 -3 10 -2 10 4 0 5 -4 13 -10 16 -5
3 -10 2 -10 -4z"/>
<path d="M1222 2980 c-7 -11 -8 -20 -3 -20 9 0 24 30 18 36 -1 2 -8 -6 -15
-16z"/>
<path d="M511 2953 c-11 -32 -44 -89 -74 -128 -46 -61 -79 -131 -92 -194 -14
-65 -23 -126 -19 -130 2 -2 25 5 51 16 l48 19 6 95 c6 92 40 232 59 244 6 4
10 -12 11 -37 1 -39 3 -35 19 37 11 44 19 88 19 98 1 30 -14 19 -28 -20z"/>
<path d="M3085 2952 c-5 -4 -17 -16 -25 -26 -14 -18 -13 -19 15 -12 17 4 46
10 65 12 56 7 50 16 -7 11 -57 -6 -66 -2 -30 13 12 5 15 9 7 9 -8 0 -19 -3
-25 -7z"/>
<path d="M3359 2940 c22 -19 71 -27 84 -13 16 15 -18 33 -62 33 l-46 -1 24
-19z"/>
<path d="M2963 2930 c-12 -5 -24 -17 -27 -27 -4 -12 -28 -25 -72 -38 -37 -11
-69 -18 -72 -17 -2 2 -9 -2 -14 -10 -7 -10 -11 -9 -23 6 -8 11 -15 15 -15 8 0
-6 -9 -9 -20 -7 -45 9 -184 -59 -233 -113 -25 -28 -8 -62 32 -62 15 0 109 40
207 89 99 49 194 92 211 95 37 9 50 22 57 59 5 29 3 30 -31 17z"/>
<path d="M1160 2903 c-35 -40 -51 -64 -66 -100 l-15 -38 20 25 c11 14 21 30
21 36 0 7 14 26 30 44 17 18 30 36 30 41 0 12 -2 11 -20 -8z"/>
<path d="M3125 2699 c-104 -7 -175 -23 -162 -35 3 -3 29 -1 59 4 92 18 204 25
192 12 -6 -6 -40 -15 -76 -20 -36 -5 -78 -14 -92 -20 -15 -5 -38 -10 -50 -10
-12 0 -36 -13 -52 -30 -18 -19 -40 -30 -59 -31 l-30 -1 30 -13 c28 -12 28 -14
10 -21 -22 -9 -51 -34 -39 -34 4 0 -3 -11 -15 -24 l-23 -24 21 -11 c18 -10 20
-18 15 -59 l-5 -47 21 45 c29 61 60 77 60 30 0 -10 12 -46 26 -79 23 -52 30
-61 53 -61 l25 0 -22 16 c-12 8 -27 25 -34 37 -14 27 -28 107 -18 107 4 0 25
16 46 35 55 51 133 78 226 79 67 0 81 -2 100 -21 20 -21 21 -23 5 -41 -9 -10
-14 -22 -10 -25 11 -12 23 -8 23 8 0 9 11 20 25 27 20 9 22 14 14 29 -6 13 -6
19 1 19 5 0 10 -4 10 -10 0 -5 7 -10 16 -10 8 0 12 -4 9 -10 -3 -5 0 -7 8 -4
9 3 23 -6 36 -23 11 -15 25 -33 31 -40 16 -19 13 -26 -41 -97 -33 -44 -44 -64
-30 -57 17 9 20 9 15 -3 -3 -8 -23 -17 -45 -21 -21 -4 -41 -10 -44 -15 -9 -14
26 -20 48 -9 21 12 21 11 5 -8 -10 -11 -18 -22 -18 -25 0 -15 34 -16 60 -3 66
34 108 131 116 268 l4 77 -28 0 c-39 0 -45 9 -25 33 17 19 17 20 -2 10 -13 -6
-35 -6 -65 0 -28 7 -38 12 -26 15 15 3 16 6 5 13 -10 6 -3 9 21 9 32 1 33 2
12 11 -13 5 -28 6 -34 3 -6 -4 -6 2 1 14 17 32 14 33 -26 6 -23 -15 -45 -23
-58 -20 -11 3 -26 6 -34 6 -11 0 -11 3 0 16 9 11 22 14 47 9 22 -4 32 -3 28 4
-13 21 -120 29 -261 20z m185 -17 c0 -10 -45 -32 -65 -32 -17 0 -17 2 -9 24 6
17 74 24 74 8z"/>
<path d="M2875 2646 c-22 -12 -39 -29 -37 -36 2 -7 -5 -21 -14 -31 -10 -11
-15 -22 -11 -25 3 -3 14 4 24 16 10 12 35 33 56 46 20 13 37 31 37 39 0 20 -8
19 -55 -9z"/>
<path d="M4660 2666 c0 -9 92 -189 100 -196 3 -3 17 -23 30 -45 13 -22 40 -61
60 -86 19 -26 40 -55 47 -65 11 -18 12 -18 30 -1 14 14 15 19 5 26 -8 5 -13
11 -13 15 3 18 0 27 -7 22 -12 -7 -104 133 -96 147 4 7 4 9 -1 5 -5 -5 -27 20
-51 55 -43 64 -104 136 -104 123z"/>
<path d="M1781 2645 c-29 -16 -41 -34 -41 -60 0 -15 3 -16 9 -7 7 11 9 11 14
-2 4 -9 13 -16 21 -16 20 0 68 59 64 79 -4 20 -36 23 -67 6z"/>
<path d="M515 2603 c8 -82 33 -174 70 -258 12 -27 25 -57 28 -65 3 -8 6 0 6
17 1 38 -38 178 -68 243 -11 25 -21 53 -21 63 0 9 -4 17 -8 17 -5 0 -8 -8 -7
-17z"/>
<path d="M1606 2579 c-9 -23 -15 -43 -13 -46 6 -5 32 37 41 65 13 39 -11 24
-28 -19z"/>
<path d="M5255 2580 c3 -5 11 -10 16 -10 6 0 7 5 4 10 -3 6 -11 10 -16 10 -6
0 -7 -4 -4 -10z"/>
<path d="M5310 2556 c0 -8 9 -18 21 -21 29 -10 31 -3 3 18 -20 15 -24 15 -24
3z"/>
<path d="M5366 2512 c6 -4 14 -14 17 -22 4 -10 6 -8 6 8 1 15 -5 22 -16 22
-11 0 -14 -3 -7 -8z"/>
<path d="M1364 2472 c-43 -32 -71 -62 -58 -62 15 0 114 70 114 80 0 16 -15 11
-56 -18z"/>
<path d="M3137 2443 c-18 -28 33 -67 56 -44 8 8 5 11 -11 11 -14 0 -26 8 -31
22 -4 13 -10 17 -14 11z"/>
<path d="M3380 2430 c22 -22 25 -45 10 -87 l-10 -28 18 24 c16 20 20 52 13
104 -1 4 -12 7 -26 7 l-25 0 20 -20z"/>
<path d="M427 2423 c-10 -9 -9 -55 1 -49 4 2 8 -47 9 -110 1 -128 18 -194 68
-259 29 -38 29 -39 5 -24 -24 15 -48 53 -71 113 -9 23 -13 26 -16 14 -2 -9 3
-30 12 -47 13 -26 13 -31 1 -31 -8 0 -22 20 -32 45 -14 37 -16 64 -11 140 4
59 3 95 -3 95 -6 0 -10 -4 -10 -10 0 -5 -11 -10 -25 -10 -18 0 -26 -7 -31 -26
-9 -34 5 -198 17 -202 5 -2 9 -30 9 -63 l0 -59 40 0 c48 0 51 -9 10 -33 -16
-10 -33 -29 -36 -43 -8 -33 12 -134 31 -153 13 -13 18 -12 46 14 39 37 111
138 135 188 l18 37 -31 33 c-31 32 -56 86 -34 73 6 -4 11 -13 11 -19 0 -13 58
-82 64 -76 2 2 9 15 16 28 l13 24 12 -23 c17 -33 21 -12 14 82 -5 70 -9 84
-30 100 -75 61 -122 116 -155 184 -37 78 -37 78 -47 67z"/>
<path d="M4260 2384 c0 -4 33 -51 74 -103 40 -53 83 -115 95 -138 25 -50 46
-140 56 -235 4 -38 11 -68 16 -68 5 0 9 -7 9 -16 0 -35 25 -4 43 52 44 142 -4
279 -137 390 -116 96 -156 126 -156 118z"/>
<path d="M1714 2310 c-55 -41 -75 -63 -101 -113 -18 -34 -32 -55 -33 -47 0 16
-48 -30 -91 -90 -28 -38 -82 -160 -75 -167 2 -3 25 31 50 74 25 43 46 74 46
69 0 -5 -27 -57 -60 -116 -33 -59 -60 -110 -60 -115 0 -4 -10 -22 -23 -39 -44
-59 -70 -122 -62 -153 l7 -28 13 30 c7 17 14 23 14 14 1 -22 68 -154 85 -168
12 -10 18 5 36 86 12 54 27 113 33 131 11 32 12 32 74 32 49 0 61 3 57 14 -4
10 6 16 36 21 l42 7 -27 14 c-15 8 -41 14 -59 14 -20 0 -27 3 -18 9 10 6 5 11
-16 20 -17 7 -39 21 -51 32 -24 23 -28 51 -6 43 8 -4 24 6 39 23 23 27 25 27
32 8 4 -11 19 -37 33 -58 19 -30 22 -40 11 -47 -10 -6 -8 -10 6 -18 21 -11 44
-9 70 6 17 9 16 11 -9 23 -63 28 -80 115 -33 168 55 61 64 68 105 75 41 6 43
8 25 22 -10 9 -13 13 -6 9 6 -3 18 0 26 7 26 26 93 10 138 -33 35 -33 40 -43
36 -73 l-4 -35 28 17 c23 13 27 21 22 45 -4 24 -2 28 11 23 25 -9 -26 53 -61
75 -18 10 -37 26 -44 34 -11 14 -10 14 14 5 34 -12 49 -13 41 -1 -3 5 -19 12
-35 16 -35 8 -40 25 -7 25 18 0 19 2 7 10 -8 5 -28 10 -45 10 -22 0 -26 3 -15
10 25 16 7 18 -45 5 -27 -7 -83 -15 -123 -18 -63 -5 -72 -4 -62 8 7 8 37 24
68 35 46 18 70 20 127 16 46 -4 63 -3 50 3 -11 5 -33 10 -48 10 -16 1 -26 5
-22 10 8 14 -32 24 -73 17 l-37 -6 30 25 c53 44 10 27 -61 -25z m-195 -339
c-12 -28 -24 -50 -26 -48 -2 2 6 27 18 56 12 28 24 50 26 48 2 -2 -6 -27 -18
-56z m-159 -277 c0 -8 -4 -12 -10 -9 -5 3 -10 10 -10 16 0 5 5 9 10 9 6 0 10
-7 10 -16z m-20 -24 c0 -5 -5 -10 -11 -10 -5 0 -7 5 -4 10 3 6 8 10 11 10 2 0
4 -4 4 -10z m77 -132 c-3 -7 -5 -2 -5 12 0 14 2 19 5 13 2 -7 2 -19 0 -25z"/>
<path d="M3295 2230 c-3 -5 1 -10 9 -10 9 0 16 5 16 10 0 6 -4 10 -9 10 -6 0
-13 -4 -16 -10z"/>
<path d="M110 2184 c-116 -71 -110 -61 -110 -186 0 -59 2 -108 5 -108 14 0
114 56 146 81 20 16 42 29 48 29 6 0 11 3 11 8 0 4 2 43 4 87 4 93 -2 135 -18
135 -6 0 -45 -21 -86 -46z"/>
<path d="M5030 2224 c0 -17 37 -60 45 -52 4 4 -5 19 -19 35 -14 15 -26 23 -26
17z"/>
<path d="M4946 2212 c-3 -5 5 -18 17 -30 12 -11 28 -28 36 -37 19 -24 22 -14
7 30 -14 39 -46 59 -60 37z"/>
<path d="M1800 1995 c0 -19 24 -29 48 -20 15 6 14 8 -8 20 -32 18 -40 18 -40
0z"/>
<path d="M5338 1964 c-8 -7 22 -64 33 -64 4 0 10 -8 12 -17 3 -10 5 -1 6 20 1
30 -2 37 -18 37 -11 0 -21 7 -23 16 -2 9 -6 13 -10 8z"/>
<path d="M193 1934 c-10 -21 -9 -24 8 -24 12 0 19 7 19 19 0 30 -14 32 -27 5z"/>
<path d="M621 1873 c-10 -26 -10 -27 4 -9 8 11 15 23 15 28 0 15 -7 8 -19 -19z"/>
<path d="M151 1832 c-41 -16 -49 -25 -90 -104 -34 -65 -48 -83 -53 -70 -4 9
-7 -21 -7 -67 -1 -72 1 -82 15 -77 9 3 33 9 55 12 21 4 39 10 39 14 0 9 24 20
59 26 13 3 40 13 60 23 20 9 44 16 54 13 9 -2 17 1 17 7 0 6 7 11 15 11 22 0
19 12 -24 98 -21 42 -41 89 -45 105 -8 32 -29 34 -95 9z m-83 -215 c8 -9 13
-19 10 -22 -8 -8 -48 31 -48 47 0 23 15 32 19 11 1 -10 10 -26 19 -36z"/>
<path d="M5206 1777 c3 -10 9 -15 12 -12 3 3 0 11 -7 18 -10 9 -11 8 -5 -6z"/>
<path d="M3765 1655 c-45 -203 -151 -388 -366 -637 -270 -313 -350 -388 -493
-463 -76 -39 -135 -45 -267 -24 -102 16 -208 67 -482 236 -72 44 -91 52 -107
43 -11 -6 -20 -12 -20 -15 0 -2 17 -13 38 -26 20 -12 45 -29 54 -37 16 -13 16
-16 -5 -32 -20 -16 -25 -17 -50 -3 -15 8 -36 13 -45 12 -24 -4 -57 9 -114 42
-26 16 -59 31 -72 33 -25 5 -66 27 -66 36 0 4 -7 15 -16 26 -14 17 -15 17 -10
1 3 -11 2 -16 -4 -12 -6 3 -10 15 -10 25 0 10 -4 22 -10 25 -5 3 -10 -3 -10
-15 0 -20 -2 -20 -37 9 -33 27 -62 34 -48 11 3 -5 10 -48 16 -96 5 -47 17
-100 25 -117 20 -38 102 -137 114 -137 5 0 1 24 -10 54 l-18 54 25 -4 c22 -4
25 -2 20 16 -4 17 -2 20 11 15 9 -4 23 -10 31 -13 10 -4 13 -1 8 12 -4 10 -3
15 3 11 6 -3 7 -18 4 -32 -5 -18 -3 -24 4 -19 8 5 10 2 6 -8 -4 -11 18 -39 67
-86 151 -144 159 -153 159 -182 0 -29 14 -38 23 -14 3 7 0 19 -6 26 -9 8 -4 8
16 -1 22 -10 33 -10 48 -1 10 7 30 12 44 12 16 0 25 6 25 15 0 8 4 15 9 15 4
0 19 11 33 25 20 20 26 39 31 92 4 36 11 71 16 76 6 6 41 -8 93 -36 184 -99
304 -122 413 -78 63 26 181 99 251 157 23 18 45 30 49 26 5 -4 5 -2 2 4 -4 6
6 22 21 35 25 22 25 22 8 2 -20 -24 -10 -32 14 -11 8 7 6 3 -4 -9 -18 -22 -18
-23 8 -33 15 -5 38 -13 51 -16 14 -3 25 -10 25 -15 0 -5 7 -9 16 -9 8 0 12 5
9 11 -4 6 2 13 14 16 12 3 21 9 21 14 0 5 6 9 14 9 8 0 17 11 20 25 4 14 11
23 16 20 15 -9 12 -27 -2 -19 -10 5 -10 4 -2 -5 9 -10 22 -9 58 7 25 12 46 26
46 32 0 6 4 9 8 6 9 -5 9 -5 18 64 3 25 10 55 16 67 6 12 8 28 5 36 -3 9 1 18
9 21 19 7 74 -4 74 -16 0 -5 3 -7 8 -5 10 7 8 -75 -2 -91 -14 -23 26 2 94 59
l61 51 -2 54 c-2 47 1 58 30 94 29 37 32 57 3 28 -22 -22 -31 4 -21 62 5 30 9
98 9 150 -1 52 2 149 6 216 4 80 3 127 -4 140 -9 17 -11 16 -17 -11z"/>
<path d="M1037 1620 c-8 -39 -3 -50 11 -23 5 10 6 27 2 38 -5 16 -8 13 -13
-15z"/>
<path d="M5256 1622 c-3 -6 -3 -83 0 -171 7 -151 8 -161 28 -167 12 -4 37 -17
56 -30 19 -13 38 -24 42 -24 5 0 8 49 8 109 0 85 -3 111 -15 121 -20 16 -73
95 -95 139 -10 19 -20 29 -24 23z"/>
<path d="M4735 1520 c-42 -226 -56 -455 -33 -535 l11 -40 19 60 c10 33 25 102
34 154 13 76 14 95 3 101 -10 7 -10 14 -1 35 7 14 12 41 12 60 0 30 -5 57 -29
175 l-8 35 -8 -45z"/>
<path d="M1050 1488 c-31 -24 -50 -49 -68 -93 -33 -81 -38 -95 -53 -135 -7
-19 -29 -69 -50 -110 -50 -99 -62 -182 -50 -355 6 -97 14 -143 31 -180 16 -37
24 -46 30 -35 22 41 33 146 39 360 l6 235 14 -70 c20 -94 21 -401 2 -517 -16
-100 -14 -106 53 -140 55 -28 30 -35 -30 -9 -26 12 -49 19 -51 17 -3 -2 -7
-23 -10 -45 -5 -40 19 -144 38 -166 17 -17 9 -25 -32 -31 -36 -6 -99 -54 -99
-76 0 -8 41 2 56 13 7 6 31 1 60 -10 66 -25 119 -38 247 -61 74 -13 126 -29
164 -50 57 -30 119 -42 95 -18 -24 24 -11 27 31 8 34 -16 65 -20 164 -20 l122
0 -8 28 c-5 16 -16 42 -25 60 -9 17 -16 37 -16 45 0 17 -88 152 -122 187 -14
14 -42 40 -62 59 -21 19 -49 53 -64 75 -32 52 -134 176 -143 176 -4 0 -10 9
-14 19 -6 19 -67 91 -77 91 -12 0 -3 -37 14 -59 10 -13 18 -30 18 -38 0 -8 9
-24 21 -36 20 -22 21 -22 35 -3 8 11 14 15 14 10 0 -6 -5 -15 -12 -22 -9 -9
-5 -25 17 -69 38 -74 45 -161 19 -245 -10 -34 -25 -63 -36 -69 -11 -6 -23 -21
-28 -35 -9 -23 -50 -35 -50 -14 0 11 -62 24 -110 22 -19 -1 -47 4 -62 10 -32
12 -31 30 4 108 27 58 38 204 27 335 -8 92 -12 376 -6 435 1 14 6 30 10 36 3
6 6 64 6 127 0 89 4 123 17 148 16 32 16 33 -6 51 -16 13 -20 25 -17 41 12 45
-7 50 -53 15z m108 -1335 c-10 -2 -26 -2 -35 0 -10 3 -2 5 17 5 19 0 27 -2 18
-5z"/>
<path d="M225 1323 c-27 -15 -63 -33 -80 -42 -44 -21 -145 -100 -145 -113 0
-7 7 -5 18 4 24 22 82 48 82 38 0 -5 -22 -33 -50 -63 l-50 -55 1 -118 0 -119
20 55 c11 30 26 70 35 88 9 19 13 36 9 40 -3 3 -8 -4 -12 -16 -3 -12 -9 -22
-12 -22 -16 0 -20 14 -9 34 9 19 103 133 119 146 3 3 18 24 33 48 15 23 43 61
63 82 19 22 34 40 32 39 -2 0 -26 -12 -54 -26z"/>
<path d="M2913 1310 c-31 -11 -72 -17 -102 -15 -34 1 -55 -2 -63 -12 -6 -8
-17 -12 -24 -9 -7 3 -16 1 -19 -4 -4 -6 -18 -10 -33 -11 -15 0 -21 -3 -14 -6
7 -3 47 3 88 13 56 13 78 14 83 6 9 -14 48 -4 109 28 67 35 57 39 -25 10z"/>
<path d="M2482 1254 c-17 -12 -20 -19 -12 -29 11 -13 -14 -25 -56 -25 -12 0
-24 -7 -28 -15 -6 -17 9 -21 19 -5 3 6 17 7 31 4 26 -7 127 6 107 13 -27 10
-11 22 45 34 38 9 49 14 34 17 -13 2 -48 -4 -78 -14 -39 -12 -58 -14 -66 -6
-7 7 -2 15 18 26 16 8 24 15 19 16 -6 0 -21 -7 -33 -16z"/>
<path d="M2790 1245 c-14 -8 -20 -14 -14 -15 5 0 19 7 30 15 24 18 16 19 -16
0z"/>
<path d="M1556 1205 c8 -20 23 -44 34 -55 11 -11 26 -36 35 -56 46 -111 276
-272 353 -246 23 7 21 10 -34 39 -33 18 -88 53 -123 80 -35 26 -71 53 -79 58
-9 6 -27 23 -41 40 -14 16 -41 45 -59 65 -19 19 -42 52 -53 73 -11 20 -26 37
-34 37 -12 0 -12 -5 1 -35z"/>
<path d="M692 1190 c-20 -38 -16 -55 5 -27 10 12 26 67 20 67 -2 0 -13 -18
-25 -40z"/>
<path d="M2623 1193 c9 -2 23 -2 30 0 6 3 -1 5 -18 5 -16 0 -22 -2 -12 -5z"/>
<path d="M5215 1167 c-26 -62 -85 -147 -110 -159 -13 -6 -25 -21 -28 -34 -4
-21 8 -35 72 -88 69 -58 223 -166 236 -166 3 0 5 13 5 29 0 28 -3 30 -54 36
-32 4 -63 15 -78 28 -39 34 -68 100 -68 154 0 73 7 89 38 87 25 -1 27 -5 40
-75 19 -102 57 -159 106 -159 14 0 16 20 16 149 0 140 -1 149 -20 154 -11 3
-20 1 -20 -4 0 -10 -90 49 -107 71 -10 13 -14 9 -28 -23z"/>
<path d="M634 1038 c-5 -7 -17 -29 -25 -48 -66 -140 -80 -203 -73 -316 6 -96
23 -167 49 -208 16 -24 16 -26 1 -26 -14 0 -14 -3 -4 -20 17 -27 25 -25 44 11
22 44 21 121 -5 209 -26 89 -23 195 10 323 20 78 21 100 3 75z"/>
<path d="M4460 794 c0 -147 6 -214 19 -214 13 0 91 78 91 90 0 7 -7 21 -15 30
-8 9 -27 57 -41 106 -47 162 -53 160 -54 -12z"/>
<path d="M3765 823 c-17 -9 -62 -40 -101 -70 l-71 -54 -7 -67 c-10 -109 -9
-114 32 -158 l39 -41 -24 -94 c-13 -52 -25 -129 -27 -171 -1 -43 -4 -80 -7
-82 -2 -2 -26 -16 -54 -31 l-50 -26 54 4 c66 5 82 23 100 110 7 34 23 94 35
132 13 39 27 88 31 110 4 22 17 67 30 100 41 102 80 335 59 348 -5 3 -23 -2
-39 -10z"/>
<path d="M2015 820 c-8 -13 5 -13 25 0 13 8 13 10 -2 10 -9 0 -20 -4 -23 -10z"/>
<path d="M4860 735 c0 -9 -6 -12 -15 -9 -21 8 -19 -3 5 -28 11 -12 24 -37 30
-57 21 -66 62 -161 71 -161 10 0 -12 83 -26 100 -7 8 -16 33 -19 55 -11 62
-28 115 -38 115 -4 0 -8 -7 -8 -15z"/>
<path d="M4788 724 c-34 -18 -45 -50 -25 -72 9 -10 27 -50 42 -90 24 -67 92
-182 115 -197 14 -9 15 -13 -36 110 -67 160 -89 236 -73 246 24 15 4 17 -23 3z"/>
<path d="M3372 651 c-17 -11 -72 -128 -72 -154 0 -21 0 -21 18 -1 28 29 102
142 102 153 0 13 -30 14 -48 2z"/>
<path d="M464 565 c-7 -26 5 -154 22 -233 8 -42 47 -70 70 -52 36 30 35 46 -5
107 -37 57 -50 89 -57 146 -2 16 -8 36 -13 45 -8 14 -11 12 -17 -13z"/>
<path d="M4552 538 c-61 -47 -61 -36 8 -183 69 -149 192 -300 275 -339 41 -20
105 -21 130 -2 19 13 18 16 -18 62 -21 27 -58 71 -82 99 -47 54 -108 141 -118
169 -4 9 -28 49 -55 88 -26 40 -54 88 -61 106 -8 18 -17 34 -20 36 -4 3 -30
-14 -59 -36z m143 -298 c3 -5 1 -10 -4 -10 -6 0 -11 5 -11 10 0 6 2 10 4 10 3
0 8 -4 11 -10z m25 -69 c0 -9 -7 -3 -15 13 -19 36 -19 47 0 22 8 -11 15 -27
15 -35z"/>
<path d="M4029 393 c-27 -59 -59 -118 -71 -130 -13 -14 -18 -28 -14 -40 7 -17
8 -17 22 1 14 20 14 20 28 0 17 -23 18 -21 -18 -28 -49 -9 -74 -33 -91 -88
-20 -67 -19 -68 10 -68 14 0 25 -4 25 -10 0 -5 15 -13 33 -18 42 -12 347 -15
347 -4 0 4 -16 23 -35 42 -67 65 -156 249 -140 287 10 22 8 44 -11 111 -9 28
-20 52 -25 52 -5 0 -32 -48 -60 -107z"/>
<path d="M1710 441 c0 -23 114 -93 190 -116 23 -7 24 -7 10 10 -9 11 -10 16
-2 11 6 -4 12 -3 12 2 0 10 -81 52 -100 52 -6 0 -33 11 -60 25 -28 14 -50 21
-50 16z"/>
<path d="M2981 423 c13 -17 32 -36 43 -43 16 -10 16 -8 -3 19 -12 17 -32 36
-44 42 -19 11 -19 10 4 -18z"/>
<path d="M2570 402 c0 -5 7 -16 16 -23 14 -12 16 -11 13 5 -4 20 -29 35 -29
18z"/>
<path d="M572 379 c2 -7 10 -15 17 -17 8 -3 12 1 9 9 -2 7 -10 15 -17 17 -8 3
-12 -1 -9 -9z"/>
<path d="M1759 366 c14 -16 71 -51 71 -43 0 3 -19 17 -42 32 -25 16 -37 21
-29 11z"/>
<path d="M1739 347 c12 -14 20 -30 17 -35 -3 -5 5 -26 19 -46 14 -20 25 -38
25 -40 0 -1 18 -22 41 -46 22 -23 44 -52 49 -64 8 -19 9 -19 9 7 1 15 5 27 10
27 14 0 74 -28 106 -50 46 -31 53 -24 15 15 -19 19 -35 42 -36 52 -2 9 -18 29
-36 45 -18 16 -25 26 -15 22 9 -3 17 -4 17 -1 0 2 -21 12 -47 22 -27 10 -75
37 -108 60 -81 57 -94 63 -66 32z"/>
<path d="M4940 362 c0 -12 40 -84 51 -92 3 -3 9 -14 13 -26 3 -11 17 -31 31
-44 l24 -23 -12 34 c-7 19 -14 36 -18 39 -3 3 -15 21 -27 40 -28 47 -62 86
-62 72z"/>
<path d="M440 310 c0 -5 5 -10 10 -10 6 0 10 5 10 10 0 6 -4 10 -10 10 -5 0
-10 -4 -10 -10z"/>
<path d="M1870 301 c19 -11 44 -20 55 -20 15 1 13 4 -10 14 -16 7 -41 15 -55
19 -19 5 -16 2 10 -13z"/>
<path d="M2597 255 c-18 -67 -18 -70 -2 -42 9 16 15 38 13 50 -3 19 -5 18 -11
-8z"/>
<path d="M3167 233 c-2 -5 -1 -17 3 -27 3 -11 1 -31 -6 -45 -17 -35 -29 -99
-16 -86 13 14 42 104 42 131 0 23 -15 41 -23 27z"/>
<path d="M691 174 c0 -11 3 -14 6 -6 3 7 2 16 -1 19 -3 4 -6 -2 -5 -13z"/>
<path d="M2098 121 c-4 -13 -11 -20 -17 -16 -6 3 -11 1 -11 -4 0 -6 5 -11 10
-11 6 0 10 -5 10 -10 0 -6 9 -20 20 -32 19 -21 20 -21 19 -2 0 10 -6 37 -13
59 -11 36 -13 38 -18 16z"/>
<path d="M733 83 c-15 -21 -31 -39 -35 -41 -5 -2 -8 -9 -8 -15 0 -15 41 26 63
62 25 43 14 39 -20 -6z"/>
<path d="M651 40 c-26 -33 -29 -40 -14 -40 18 0 47 14 42 21 -1 2 1 14 5 27
12 38 2 35 -33 -8z"/>
</g>
</svg>
